<svg width="96" height="94" viewBox="0 0 96 94" fill="none" xmlns="http://www.w3.org/2000/svg">
<path d="M80.1251 39.3906C80.1251 47.6535 77.3492 55.2583 72.7471 61.4006C70.1904 64.6912 67.1223 67.6161 63.616 69.8829C57.9181 73.6122 51.1245 75.8059 43.8196 75.8059C23.7311 75.8059 7.51416 59.4994 7.51416 39.4637C7.51416 19.3549 23.8041 3.12158 43.8196 3.12158C51.1245 3.12158 57.9181 5.31527 63.616 8.97143C67.1223 11.2382 70.1904 14.1632 72.7471 17.4537C77.4223 23.5229 80.1251 31.1277 80.1251 39.3906Z" fill="#EAEEF9"/>
<path d="M70.5732 6.18115H68.2236V7.72055H70.5732V6.18115Z" fill="#B3BFCF"/>
<path d="M70.5732 6.18115H68.2236V6.84823H70.5732V6.18115Z" fill="#9FADBF"/>
<path d="M61.5841 9.31152L60.3071 10.5944L61.2265 11.518L62.5034 10.2352L61.5841 9.31152Z" fill="#B3BFCF"/>
<path d="M76.6006 10.1325L77.8775 11.4154L78.6948 10.5944L77.4178 9.31152L76.6006 10.1325Z" fill="#B3BFCF"/>
<g filter="url(#filter0_d_123_5368)">
<path d="M69.5518 30.3501C75.8343 30.3501 80.942 25.2188 80.942 18.9072C80.942 12.5957 75.8343 7.46436 69.5518 7.46436C63.2693 7.46436 58.1616 12.5957 58.1616 18.9072C58.1616 25.2188 63.2693 30.3501 69.5518 30.3501Z" fill="#F0F3F9"/>
<path d="M69.5518 30.3501C75.8343 30.3501 80.942 25.2188 80.942 18.9072C80.942 12.5957 75.8343 7.46436 69.5518 7.46436C63.2693 7.46436 58.1616 12.5957 58.1616 18.9072C58.1616 25.2188 63.2693 30.3501 69.5518 30.3501Z" stroke="#CDD5E4" stroke-width="0.349594" stroke-miterlimit="10"/>
</g>
<path d="M78.4394 18.907C78.4394 19.0097 78.4394 19.1123 78.4394 19.2149C78.2862 23.9871 74.3532 27.8356 69.552 27.8356C64.7507 27.8356 60.8178 23.9871 60.6646 19.2149C60.6646 19.1123 60.6646 19.0097 60.6646 18.907C60.6646 14.0836 64.4443 10.1325 69.2455 9.97852C69.3477 9.97852 69.4498 9.97852 69.552 9.97852C74.4043 9.97852 78.3372 13.8783 78.4394 18.7531C78.4394 18.8044 78.4394 18.8557 78.4394 18.907Z" fill="#EDF0FC"/>
<path d="M78.4394 19.2149C78.2862 23.987 74.3532 27.8355 69.552 27.8355C64.7507 27.8355 60.8178 23.987 60.6646 19.2149C60.8178 14.4427 64.7507 10.5942 69.552 10.5942C74.4043 10.5942 78.2862 14.3914 78.4394 19.2149Z" fill="white"/>
<path d="M71.9522 24.6031H66.8445C66.5891 24.6031 66.3848 24.3978 66.3848 24.1413V21.5756C66.3848 21.319 66.5891 21.1138 66.8445 21.1138H71.9522C72.2076 21.1138 72.4119 21.319 72.4119 21.5756V24.1413C72.3608 24.3978 72.1565 24.6031 71.9522 24.6031Z" fill="#F2F5FC"/>
<path d="M77.2647 19.369H75.7834C75.528 19.369 75.3237 19.1637 75.3237 18.9071C75.3237 18.6506 75.528 18.4453 75.7834 18.4453H77.2647C77.52 18.4453 77.7244 18.6506 77.7244 18.9071C77.7244 19.1637 77.469 19.369 77.2647 19.369Z" fill="#DAE1ED"/>
<path d="M62.8609 19.369H61.3796C61.1242 19.369 60.9199 19.1637 60.9199 18.9071C60.9199 18.6506 61.1242 18.4453 61.3796 18.4453H62.8609C63.1162 18.4453 63.3205 18.6506 63.3205 18.9071C63.3205 19.1637 63.1162 19.369 62.8609 19.369Z" fill="#DAE1ED"/>
<path d="M69.3474 27.3224C69.092 27.3224 68.8877 27.1171 68.8877 26.8606V25.3725C68.8877 25.1159 69.092 24.9106 69.3474 24.9106C69.6028 24.9106 69.8071 25.1159 69.8071 25.3725V26.8606C69.756 27.1684 69.5517 27.3224 69.3474 27.3224Z" fill="#DAE1ED"/>
<path d="M69.3474 12.9034C69.092 12.9034 68.8877 12.6981 68.8877 12.4416V11.0048C68.8877 10.7482 69.092 10.543 69.3474 10.543C69.6028 10.543 69.8071 10.7482 69.8071 11.0048V12.4929C69.756 12.6981 69.5517 12.9034 69.3474 12.9034Z" fill="#DAE1ED"/>
<path d="M69.4496 20.1385C70.2157 20.1385 70.7776 19.5227 70.7776 18.8044C70.7776 18.0347 70.1647 17.4702 69.4496 17.4702C68.6834 17.4702 68.1216 18.086 68.1216 18.8044C68.1216 19.5227 68.6834 20.1385 69.4496 20.1385Z" fill="#F2F5FC"/>
<path d="M75.1701 13.4167C75.0169 13.2628 74.7615 13.2628 74.6082 13.4167L69.8581 18.4454C69.807 18.4454 69.807 18.4454 69.807 18.4454C69.4495 18.4454 69.1941 18.702 69.1941 19.0612C69.1941 19.1125 69.1941 19.1125 69.1941 19.1638L68.4279 19.9848C68.2747 20.1388 68.2747 20.3953 68.4279 20.5493C68.5301 20.6519 68.5811 20.6519 68.6833 20.6519C68.7855 20.6519 68.8876 20.6006 68.9387 20.5493L69.7048 19.7283C69.7559 19.7283 69.7559 19.7283 69.7559 19.7283C70.1135 19.7283 70.3688 19.4717 70.3688 19.1125C70.3688 19.0612 70.3688 19.0612 70.3688 19.0099L75.119 14.0325C75.3233 13.8272 75.3233 13.5707 75.1701 13.4167Z" fill="#DAE1ED"/>
<path d="M74.8127 13.1086C74.6594 12.9547 74.4041 12.9547 74.2508 13.1086L69.5006 18.1373C69.4496 18.1373 69.4496 18.1373 69.4496 18.1373C69.092 18.1373 68.8366 18.3939 68.8366 18.7531C68.8366 18.8044 68.8366 18.8044 68.8366 18.8557L68.0705 19.6767C67.9173 19.8307 67.9173 20.0872 68.0705 20.2412C68.1726 20.3438 68.2237 20.3438 68.3259 20.3438C68.428 20.3438 68.5302 20.2925 68.5813 20.2412L69.3474 19.4202C69.3985 19.4202 69.3985 19.4202 69.3985 19.4202C69.756 19.4202 70.0114 19.1636 70.0114 18.8044C70.0114 18.7531 70.0114 18.7531 70.0114 18.7018L74.7616 13.7244C74.9659 13.5191 74.9659 13.2626 74.8127 13.1086Z" fill="#EB358A"/>
<path d="M74.6596 13.2628L68.1728 20.0362C68.1217 20.0362 68.1217 20.0362 68.0707 20.0362C68.0196 19.9335 68.0196 19.8309 68.1217 19.7796L74.3531 13.2115C74.4553 13.1089 74.5575 13.1089 74.6596 13.1602C74.6596 13.1602 74.6596 13.2115 74.6596 13.2628Z" fill="#FF4FA2"/>
<path d="M71.697 4.02627V5.51435C71.697 6.0788 71.2373 6.54062 70.6755 6.54062H68.1216C67.5598 6.54062 67.1001 6.0788 67.1001 5.51435V4.02627C67.1001 3.46182 67.5598 3 68.1216 3H70.6755C71.2373 3 71.697 3.46182 71.697 4.02627Z" fill="#1C3754"/>
<path d="M71.697 4.02627V5.51435C71.697 6.0788 71.2373 6.54062 70.6755 6.54062H68.1216C67.5598 6.54062 67.1001 6.0788 67.1001 5.51435V5.25779C67.2533 5.97617 67.9173 5.97617 67.9173 5.97617H70.5223C70.8798 5.97617 71.1863 5.66829 71.1863 5.3091V4.23152C71.1863 3.46182 71.033 3.20525 70.6755 3C71.2373 3 71.697 3.46182 71.697 4.02627Z" fill="#172D45"/>
<path d="M61.8394 9.41422L60.4603 10.7997C60.1539 11.1076 59.6431 11.1076 59.3366 10.7997L58.5194 9.97866C58.2129 9.67078 58.2129 9.15765 58.5194 8.84977L59.8985 7.46431C60.2049 7.15643 60.7157 7.15643 61.0222 7.46431L61.8394 8.28532C62.1459 8.5932 62.1459 9.10634 61.8394 9.41422Z" fill="#1C3754"/>
<path d="M77.1622 9.41422L78.5413 10.7997C78.8478 11.1076 79.3586 11.1076 79.665 10.7997L80.4823 9.97866C80.7887 9.67078 80.7887 9.15765 80.4823 8.84977L79.1032 7.46431C78.7967 7.15643 78.2859 7.15643 77.9795 7.46431L77.1622 8.28532C76.9069 8.5932 76.9069 9.10634 77.1622 9.41422Z" fill="#1C3754"/>
<path d="M69.4498 18.906C69.5009 18.906 69.552 18.8549 69.552 18.8038C69.552 18.7527 69.5009 18.7017 69.4498 18.7017C69.3987 18.7017 69.3477 18.7527 69.3477 18.8038C69.3477 18.8549 69.3987 18.906 69.4498 18.906Z" fill="#1C3754"/>
<path opacity="0.4" d="M78.4395 18.7531H69.2456V9.97852C69.3478 9.97852 69.4499 9.97852 69.5521 9.97852C74.4555 9.97852 78.3884 13.9296 78.4395 18.7531Z" fill="url(#paint0_linear_123_5368)"/>
<path d="M10.8014 16.2103C11.4873 16.2103 12.0432 15.6538 12.0432 14.9672C12.0432 14.2807 11.4873 13.7241 10.8014 13.7241C10.1156 13.7241 9.55957 14.2807 9.55957 14.9672C9.55957 15.6538 10.1156 16.2103 10.8014 16.2103Z" fill="url(#paint1_linear_123_5368)"/>
<path d="M71.3592 75.6134C72.0047 75.6134 72.528 75.0896 72.528 74.4434C72.528 73.7973 72.0047 73.2734 71.3592 73.2734C70.7137 73.2734 70.1904 73.7973 70.1904 74.4434C70.1904 75.0896 70.7137 75.6134 71.3592 75.6134Z" fill="url(#paint2_linear_123_5368)"/>
<path d="M64.3463 47.0161L56.3109 66.4669C56.0918 66.9056 56.0187 67.4175 56.0187 67.9293L55.9457 69.538H24.3154C23.2196 69.538 22.343 68.5874 22.4161 67.4906L23.4388 57.1071C23.6579 54.8403 22.0508 52.7929 19.7863 52.5004L13.9424 51.7691L15.4034 42.2631C16.8644 32.7571 21.1743 32.4646 24.0232 31.0753C25.4111 30.4172 27.0182 29.7591 28.4061 29.1741C29.1366 28.8816 29.8671 28.6623 30.3054 28.4429C30.8168 28.2235 31.4011 28.1504 31.9855 28.1504C33.0082 28.2235 34.7614 28.3698 37.3912 28.9547C38.9983 29.3204 40.9706 29.686 42.8699 30.0516C43.3082 30.1247 43.8195 30.1978 44.2578 30.3441C47.6181 31.0022 50.7592 32.4646 53.389 34.5852L63.0315 42.3363C64.5655 43.2869 65.0768 45.2612 64.3463 47.0161Z" fill="#23476F"/>
<path d="M41.6279 25.0062V29.6861C41.6279 32.8304 38.9981 35.3897 35.7109 35.3897C34.1038 35.3897 32.5698 34.7316 31.5471 33.7079C30.4514 32.6841 29.7939 31.2217 29.7939 29.6861V15.939L41.6279 25.0062Z" fill="white"/>
<path d="M41.6278 25.0067V29.5403C34.8342 28.8822 32.5697 22.1549 33.5194 22.9592C34.3229 23.7636 38.6328 24.5679 41.6278 25.0067Z" fill="url(#paint3_linear_123_5368)"/>
<path d="M45.719 8.70004C45.792 15.9392 46.7417 23.1053 45.0615 24.4215C43.3814 25.7377 39.6559 26.9808 35.9304 24.7871C32.2049 22.5934 31.7666 21.2041 31.7666 21.2041L29.7212 19.1566L30.0134 10.7475L35.9304 6.50635L45.719 8.70004Z" fill="white"/>
<path d="M45.7188 8.69992C45.7188 8.69992 46.4493 10.8936 43.3082 10.8205C40.1671 10.7474 36.3685 9.72364 34.7615 9.43115C33.1544 9.06554 32.1317 10.8936 32.1317 10.8936V13.6723L31.7664 17.9865C31.7664 17.9865 28.9175 16.6703 28.8445 14.9885C28.7714 13.3067 28.8445 12.7948 28.8445 12.7948L32.3508 9.5774C32.3508 9.5774 36.8799 7.89557 37.099 7.6762C37.3182 7.52995 41.9933 6.43311 41.9933 6.43311C41.9933 6.43311 45.2075 6.57935 45.4997 7.01809C45.6458 7.23746 45.7188 7.74932 45.7919 8.11494C45.7188 8.48055 45.7188 8.69992 45.7188 8.69992Z" fill="#1C3754"/>
<path d="M30.3902 19.5838C31.5139 19.4681 32.3212 18.3647 32.1932 17.1193C32.0653 15.8739 31.0506 14.9581 29.9268 15.0737C28.8031 15.1894 27.9958 16.2928 28.1238 17.5382C28.2517 18.7836 29.2664 19.6995 30.3902 19.5838Z" fill="white"/>
<path d="M45.8649 9.79681C45.7919 9.79681 45.7919 9.79681 45.7188 9.86993C44.3309 8.04185 42.0664 7.01813 37.8295 8.55372H37.7564C37.6103 8.62684 37.3912 8.69996 37.1721 8.77309C36.9529 8.84621 36.7338 8.91933 36.5146 9.06558C35.4919 9.50432 33.8848 10.3818 32.4239 11.4055C30.5976 12.6486 28.9905 14.2573 28.9175 15.5735C28.4792 13.8186 28.26 12.0636 28.187 10.3087C28.1139 7.01813 32.2047 3.58135 36.2955 3.06949C38.4869 2.777 40.2401 3.4351 41.7742 4.53195C43.089 5.48255 44.2578 6.87189 45.2805 8.26122L45.8649 9.79681Z" fill="url(#paint4_linear_123_5368)"/>
<path d="M50.7592 5.77446C50.3939 7.60253 47.545 9.06499 45.7188 9.79622C42.5046 5.62821 36.1493 8.7725 32.4238 11.4049C32.4969 11.3318 32.5699 10.8931 32.643 10.8199C34.9075 5.2626 51.7819 0.363352 50.7592 5.77446Z" fill="#4562FF"/>
<path d="M43.6002 16.0123C44.0843 16.0123 44.4768 15.6194 44.4768 15.1348C44.4768 14.6502 44.0843 14.2573 43.6002 14.2573C43.1161 14.2573 42.7236 14.6502 42.7236 15.1348C42.7236 15.6194 43.1161 16.0123 43.6002 16.0123Z" fill="#1C3754"/>
<path d="M37.3912 16.0123C37.8754 16.0123 38.2678 15.6194 38.2678 15.1348C38.2678 14.6502 37.8754 14.2573 37.3912 14.2573C36.9071 14.2573 36.5146 14.6502 36.5146 15.1348C36.5146 15.6194 36.9071 16.0123 37.3912 16.0123Z" fill="#1C3754"/>
<path d="M68.437 37.8759H66.6838C66.4646 37.8759 66.3916 37.8028 66.3916 37.5837C66.3916 37.3646 66.4646 37.2915 66.6838 37.2915H68.437C68.6561 37.2915 68.7292 37.3646 68.7292 37.5837C68.7292 37.7298 68.6561 37.8759 68.437 37.8759Z" fill="url(#paint5_linear_123_5368)"/>
<path d="M83.4849 36.56V69.0267C83.4849 69.4654 83.4119 69.831 83.1927 70.1235C83.1197 70.1966 83.0466 70.416 82.9005 70.4891C82.8275 70.5622 82.8275 70.5622 82.7544 70.6354C82.3161 71.0741 81.8048 71.2935 81.1473 71.2935H71.3588L69.4595 34.4395H81.3665C82.5353 34.4395 83.4849 35.3169 83.4849 36.56Z" fill="url(#paint6_linear_123_5368)"/>
<g filter="url(#filter1_d_123_5368)">
<path d="M83.4849 36.56V69.0267C83.4849 69.4654 83.4119 69.831 83.1927 70.1235C83.1197 70.1966 83.0466 70.416 82.9005 70.4891C82.8275 70.5622 82.8275 70.5622 82.7544 70.6354C82.3161 71.0741 81.8048 71.2935 81.1473 71.2935H71.3588L69.4595 34.4395H81.3665C82.5353 34.4395 83.4849 35.3169 83.4849 36.56Z" fill="url(#paint7_linear_123_5368)"/>
</g>
<g filter="url(#filter2_d_123_5368)">
<path d="M71.432 36.3407V71.2203H39.3634C38.1215 71.2203 37.1719 70.2697 37.1719 69.0267V36.56C37.1719 35.3901 38.1215 34.4395 39.3634 34.4395H69.4596C70.5554 34.4395 71.432 35.3169 71.432 36.3407Z" fill="url(#paint8_linear_123_5368)"/>
</g>
<path d="M57.8448 34.4395V44.1648C57.8448 44.4573 57.6987 44.6036 57.4796 44.7498L56.1647 45.3348C56.0186 45.4079 55.7995 45.4079 55.6534 45.2617L53.608 43.653C53.4619 43.5798 53.2427 43.5067 53.0966 43.5798L52.0009 44.1648C51.7087 44.3111 51.4165 44.0917 51.4165 43.8723V34.4395H57.8448Z" fill="#4260FF"/>
<path d="M69.4595 34.4395C70.263 34.2932 71.2127 34.8051 71.5049 35.6094C71.5779 35.8288 71.6509 36.0482 71.6509 36.2675C71.6509 36.4869 71.6509 36.7063 71.6509 36.8525V38.0225V42.7755L71.5779 52.2815L71.5049 61.7875L71.3588 71.2935L71.2857 61.7875L71.2127 52.2815L71.1396 42.7755V38.0225V36.8525C71.1396 36.4138 71.2127 36.0482 71.0666 35.7557C70.8474 35.0976 70.19 34.5857 69.4595 34.4395Z" fill="#8299FF"/>
<path d="M71.3588 65.151V69.3922C71.3588 69.6846 71.0666 70.1965 70.7744 70.7084C70.4822 71.0009 70.0439 71.1471 69.6056 71.1471H64.7113L61.2049 67.1253L62.3007 65.9554L59.3057 62.5917L63.2503 62.8842L66.4645 61.4217L64.4922 59.7399L64.7113 58.6431L71.3588 65.151Z" fill="url(#paint9_linear_123_5368)"/>
<path d="M59.379 61.4949C59.306 61.6412 59.2329 61.8605 59.2329 62.0068C59.2329 62.4455 59.5982 62.8111 60.0365 62.8111H61.2783V66.8329C61.2783 66.9792 61.3513 67.1254 61.5705 67.1254H64.5655H65.0768C65.2229 67.1254 65.369 67.0523 65.369 66.8329V62.8111H66.4648C66.6109 62.8111 66.83 62.738 66.9761 62.6649C67.3414 62.3724 67.4144 61.8605 67.1222 61.4949L63.9081 57.4732C63.835 57.4 63.835 57.3269 63.762 57.3269C63.3967 57.0344 62.8854 57.1807 62.5932 57.4732L59.379 61.4949Z" fill="url(#paint10_linear_123_5368)"/>
<path d="M23.2925 59.0085L24.6074 45.9194L25.9953 59.9591" fill="#133249"/>
<g filter="url(#filter3_d_123_5368)">
<path d="M52.5123 62.811C52.5854 63.3229 52.1471 63.7616 51.7088 63.8347L50.9052 63.9078C50.9052 63.9078 48.1294 63.4691 47.9833 65.4434C47.8372 67.0521 48.6407 67.6371 50.8322 70.3427C51.3435 71.0008 50.9052 71.9514 50.1017 72.0245C44.623 72.4632 44.4039 72.4632 40.0939 68.2221C39.5096 67.6371 38.706 67.2715 37.9025 67.2715L26.7259 67.1984L16.7912 67.0521C15.1111 66.2478 14.0884 64.5659 14.2345 62.6647L14.8189 51.6963L23.9501 52.8663L23.4387 57.9117L38.9982 61.056C38.9982 61.056 42.9429 61.8604 46.084 61.7141C48.4216 61.641 50.3939 61.7873 51.7088 61.8604C52.074 62.0066 52.4393 62.3723 52.5123 62.811Z" fill="white"/>
</g>
<defs>
<filter id="filter0_d_123_5368" x="44.0588" y="0.325522" width="50.986" height="51.0915" filterUnits="userSpaceOnUse" color-interpolation-filters="sRGB">
<feFlood flood-opacity="0" result="BackgroundImageFix"/>
<feColorMatrix in="SourceAlpha" type="matrix" values="0 0 0 0 0 0 0 0 0 0 0 0 0 0 0 0 0 0 127 0" result="hardAlpha"/>
<feOffset dy="6.96403"/>
<feGaussianBlur stdDeviation="6.96403"/>
<feColorMatrix type="matrix" values="0 0 0 0 0.397708 0 0 0 0 0.47749 0 0 0 0 0.575 0 0 0 0.18 0"/>
<feBlend mode="normal" in2="BackgroundImageFix" result="effect1_dropShadow_123_5368"/>
<feBlend mode="normal" in="SourceGraphic" in2="effect1_dropShadow_123_5368" result="shape"/>
</filter>
<filter id="filter1_d_123_5368" x="64.3947" y="32.5402" width="24.1549" height="46.9835" filterUnits="userSpaceOnUse" color-interpolation-filters="sRGB">
<feFlood flood-opacity="0" result="BackgroundImageFix"/>
<feColorMatrix in="SourceAlpha" type="matrix" values="0 0 0 0 0 0 0 0 0 0 0 0 0 0 0 0 0 0 127 0" result="hardAlpha"/>
<feOffset dy="3.16547"/>
<feGaussianBlur stdDeviation="2.53237"/>
<feColorMatrix type="matrix" values="0 0 0 0 0.1125 0 0 0 0 0.295916 0 0 0 0 1 0 0 0 0.22 0"/>
<feBlend mode="normal" in2="BackgroundImageFix" result="effect1_dropShadow_123_5368"/>
<feBlend mode="normal" in="SourceGraphic" in2="effect1_dropShadow_123_5368" result="shape"/>
</filter>
<filter id="filter2_d_123_5368" x="32.1071" y="32.5402" width="44.3898" height="46.9103" filterUnits="userSpaceOnUse" color-interpolation-filters="sRGB">
<feFlood flood-opacity="0" result="BackgroundImageFix"/>
<feColorMatrix in="SourceAlpha" type="matrix" values="0 0 0 0 0 0 0 0 0 0 0 0 0 0 0 0 0 0 127 0" result="hardAlpha"/>
<feOffset dy="3.16547"/>
<feGaussianBlur stdDeviation="2.53237"/>
<feColorMatrix type="matrix" values="0 0 0 0 0.1125 0 0 0 0 0.295916 0 0 0 0 1 0 0 0 0.22 0"/>
<feBlend mode="normal" in2="BackgroundImageFix" result="effect1_dropShadow_123_5368"/>
<feBlend mode="normal" in="SourceGraphic" in2="effect1_dropShadow_123_5368" result="shape"/>
</filter>
<filter id="filter3_d_123_5368" x="0.292645" y="44.7323" width="66.1559" height="48.3717" filterUnits="userSpaceOnUse" color-interpolation-filters="sRGB">
<feFlood flood-opacity="0" result="BackgroundImageFix"/>
<feColorMatrix in="SourceAlpha" type="matrix" values="0 0 0 0 0 0 0 0 0 0 0 0 0 0 0 0 0 0 127 0" result="hardAlpha"/>
<feOffset dy="6.96403"/>
<feGaussianBlur stdDeviation="6.96403"/>
<feColorMatrix type="matrix" values="0 0 0 0 0.397708 0 0 0 0 0.47749 0 0 0 0 0.575 0 0 0 0.18 0"/>
<feBlend mode="normal" in2="BackgroundImageFix" result="effect1_dropShadow_123_5368"/>
<feBlend mode="normal" in="SourceGraphic" in2="effect1_dropShadow_123_5368" result="shape"/>
</filter>
<linearGradient id="paint0_linear_123_5368" x1="68.6278" y1="11.7424" x2="76.877" y2="19.9576" gradientUnits="userSpaceOnUse">
<stop stop-color="#EF4896"/>
<stop offset="1" stop-color="#F14D9A" stop-opacity="0"/>
</linearGradient>
<linearGradient id="paint1_linear_123_5368" x1="9.55957" y1="14.9837" x2="11.9741" y2="14.9837" gradientUnits="userSpaceOnUse">
<stop stop-color="#83A6FF"/>
<stop offset="1" stop-color="#5A78FF"/>
</linearGradient>
<linearGradient id="paint2_linear_123_5368" x1="70.2116" y1="74.4185" x2="72.4793" y2="74.4185" gradientUnits="userSpaceOnUse">
<stop stop-color="#FF66A9"/>
<stop offset="1" stop-color="#F53689"/>
</linearGradient>
<linearGradient id="paint3_linear_123_5368" x1="36.6339" y1="28.0544" x2="37.7269" y2="25.8385" gradientUnits="userSpaceOnUse">
<stop stop-color="#E3E7F5"/>
<stop offset="0.9913" stop-color="#CED5E6"/>
</linearGradient>
<linearGradient id="paint4_linear_123_5368" x1="28.1858" y1="9.29621" x2="45.8345" y2="9.29621" gradientUnits="userSpaceOnUse">
<stop stop-color="#83A6FF"/>
<stop offset="1" stop-color="#5A78FF"/>
</linearGradient>
<linearGradient id="paint5_linear_123_5368" x1="66.4255" y1="37.5379" x2="68.7467" y2="37.5379" gradientUnits="userSpaceOnUse">
<stop stop-color="#83A6FF"/>
<stop offset="1" stop-color="#5A78FF"/>
</linearGradient>
<linearGradient id="paint6_linear_123_5368" x1="60.1483" y1="53.4538" x2="76.8597" y2="52.7774" gradientUnits="userSpaceOnUse">
<stop stop-color="#3F68D1"/>
<stop offset="1" stop-color="#4D6CFF"/>
</linearGradient>
<linearGradient id="paint7_linear_123_5368" x1="91.2395" y1="65.7058" x2="78.5923" y2="54.4755" gradientUnits="userSpaceOnUse">
<stop stop-color="#83A6FF"/>
<stop offset="1" stop-color="#5A78FF" stop-opacity="0"/>
</linearGradient>
<linearGradient id="paint8_linear_123_5368" x1="37.134" y1="52.8105" x2="71.3709" y2="52.8105" gradientUnits="userSpaceOnUse">
<stop stop-color="#83A6FF"/>
<stop offset="1" stop-color="#5A78FF"/>
</linearGradient>
<linearGradient id="paint9_linear_123_5368" x1="61.9975" y1="62.1181" x2="70.2971" y2="70.4307" gradientUnits="userSpaceOnUse">
<stop stop-color="#3352FF"/>
<stop offset="1" stop-color="#657EFF" stop-opacity="0"/>
</linearGradient>
<linearGradient id="paint10_linear_123_5368" x1="65.9129" y1="65.6606" x2="61.203" y2="60.9434" gradientUnits="userSpaceOnUse">
<stop offset="0.0113208" stop-color="#C2D1FF"/>
<stop offset="1" stop-color="white"/>
</linearGradient>
</defs>
</svg>
